<svg version="1.0" xmlns="http://www.w3.org/2000/svg"
 width="20px" height="20px" viewBox="0 0 512.000000 511.000000"
 preserveAspectRatio="xMidYMid meet">

<g transform="translate(0.000000,511.000000) scale(0.100000,-0.100000)"
fill="#ffffff" stroke="none">
<path d="M317 4455 c-59 -118 -107 -217 -107 -220 0 -3 34 -5 75 -5 l75 0 0
-1919 0 -1920 26 -20 27 -21 1913 0 1913 0 3 -74 3 -74 223 112 222 111 -225
113 -225 112 0 -75 0 -75 -1865 0 -1865 0 0 1865 0 1865 70 0 c39 0 70 2 70 5
0 10 -215 435 -220 435 -3 0 -54 -97 -113 -215z"/>
<path d="M1270 4255 c-104 -24 -186 -70 -266 -149 -134 -134 -183 -309 -139
-495 66 -277 363 -458 638 -386 357 93 515 503 313 809 -116 174 -344 266
-546 221z m193 -150 c81 -21 127 -47 182 -102 86 -86 127 -213 105 -325 -24
-128 -105 -233 -218 -286 -49 -23 -70 -27 -152 -27 -86 0 -101 3 -160 31 -83
39 -145 101 -184 184 -28 59 -31 74 -31 160 0 88 3 101 33 162 63 128 193 212
337 217 17 1 57 -6 88 -14z"/>
<path d="M2549 4109 c-149 -23 -267 -132 -305 -279 -84 -329 281 -591 568
-408 90 57 148 145 168 256 45 248 -179 472 -431 431z m156 -167 c131 -64 170
-230 81 -346 -34 -46 -117 -86 -175 -86 -53 0 -135 35 -168 71 -42 46 -66 117
-60 176 16 159 182 254 322 185z"/>
<path d="M3681 3949 c-111 -45 -170 -180 -127 -294 35 -91 151 -158 243 -140
82 15 138 59 172 135 67 148 -43 311 -208 309 -31 0 -67 -5 -80 -10z m138
-165 c12 -15 21 -38 21 -51 0 -32 -42 -73 -75 -73 -36 0 -75 42 -75 80 0 67
88 97 129 44z"/>
<path d="M3672 2719 c-211 -41 -367 -267 -332 -481 13 -84 69 -195 123 -245
222 -204 559 -143 688 124 29 59 33 80 37 163 3 77 0 106 -17 155 -74 210
-280 327 -499 284z m175 -154 c112 -33 193 -145 193 -265 -1 -116 -72 -220
-178 -260 -252 -94 -480 189 -331 413 68 103 194 148 316 112z"/>
<path d="M2542 2689 c-150 -30 -261 -134 -298 -279 -57 -225 101 -445 336
-467 107 -10 239 42 310 123 174 199 97 512 -148 604 -60 22 -145 31 -200 19z
m168 -169 c158 -82 167 -306 16 -395 -204 -119 -430 107 -311 310 59 102 189
139 295 85z"/>
<path d="M1300 2611 c-83 -27 -158 -89 -196 -163 -11 -20 -19 -64 -22 -114 -4
-72 -1 -89 20 -136 50 -108 137 -168 254 -176 131 -8 234 50 291 166 23 47 28
70 28 132 -1 123 -56 215 -161 266 -58 28 -166 41 -214 25z m150 -162 c44 -25
80 -83 80 -131 0 -45 -30 -98 -71 -126 -28 -20 -43 -23 -92 -20 -51 4 -63 9
-94 41 -32 31 -37 43 -41 94 -3 49 0 64 20 93 45 68 128 88 198 49z"/>
<path d="M1279 1736 c-293 -79 -374 -469 -137 -656 146 -116 349 -110 483 12
92 84 128 165 127 289 -2 242 -238 419 -473 355z m214 -169 c79 -47 124 -145
107 -234 -39 -214 -327 -256 -424 -62 -46 93 -30 185 44 259 25 25 61 51 80
57 54 19 143 9 193 -20z"/>
<path d="M3650 1651 c-65 -27 -125 -83 -157 -149 -23 -48 -28 -69 -27 -132 1
-122 60 -217 170 -271 72 -35 189 -34 259 3 148 78 209 245 143 389 -35 77
-70 113 -140 148 -52 26 -72 31 -132 30 -44 0 -88 -7 -116 -18z m193 -150 c85
-55 95 -165 23 -237 -82 -82 -230 -33 -252 82 -9 51 21 122 65 151 43 29 123
31 164 4z"/>
<path d="M2539 1586 c-153 -55 -205 -235 -102 -355 48 -56 99 -81 168 -81 134
0 224 90 225 223 0 153 -150 264 -291 213z m115 -157 c33 -26 36 -79 6 -109
-30 -30 -83 -27 -109 6 -24 30 -26 43 -10 78 21 46 72 57 113 25z"/>
</g>
</svg>
