<?xml version="1.0" standalone="no"?>
<!DOCTYPE svg PUBLIC "-//W3C//DTD SVG 20010904//EN"
 "http://www.w3.org/TR/2001/REC-SVG-20010904/DTD/svg10.dtd">
<svg version="1.0" xmlns="http://www.w3.org/2000/svg"
 width="512.000000pt" height="512.000000pt" viewBox="0 0 512.000000 512.000000"
 preserveAspectRatio="xMidYMid meet">

<g transform="translate(0.000000,512.000000) scale(0.100000,-0.100000)"
fill="#ffffff" stroke="none">
<path d="M222 4645 c-97 -30 -172 -111 -192 -208 -7 -36 -10 -621 -8 -1907 l3
-1855 21 -46 c27 -58 85 -116 143 -143 l46 -21 2325 0 2325 0 46 21 c58 27
116 85 143 143 l21 46 0 1885 0 1885 -21 46 c-27 58 -85 116 -143 143 l-46 21
-2310 2 c-1919 1 -2317 -1 -2353 -12z m4655 -165 c61 -37 64 -51 61 -342 l-3
-263 -2375 0 -2375 0 -3 263 c-3 291 0 305 61 342 31 20 68 20 2317 20 2249 0
2286 0 2317 -20z m61 -2263 c2 -1655 7 -1536 -61 -1577 -31 -20 -68 -20 -2315
-20 -2523 0 -2321 -5 -2362 63 -20 31 -20 62 -20 1528 0 823 3 1499 7 1502 3
4 1073 6 2377 5 l2371 -3 3 -1498z"/>
<path d="M650 4273 c-38 -35 -51 -78 -36 -123 13 -40 66 -80 106 -80 40 0 93
40 106 80 24 72 -31 150 -106 150 -29 0 -48 -7 -70 -27z"/>
<path d="M1114 4281 c-60 -37 -69 -123 -18 -175 78 -78 206 -12 191 98 -11 82
-100 122 -173 77z"/>
<path d="M1554 4266 c-29 -29 -34 -41 -34 -79 0 -75 61 -127 133 -113 46 9 97
67 97 111 0 32 -33 86 -61 100 -49 26 -97 19 -135 -19z"/>
</g>
</svg>
